<?xml version="1.0" encoding="UTF-8"?>
<svg version="1.1" xmlns="http://www.w3.org/2000/svg" width="1680" height="701">
<path d="M0 0 C22.79072166 19.66831438 40.18163615 43.95354716 49 73 C49.19013672 73.61085449 49.38027344 74.22170898 49.57617188 74.85107422 C68.67713178 137.34572575 60.32193444 210.11359544 30.08203125 267.6796875 C23.9932605 278.82764388 16.93817855 289.20809863 9.26513672 299.32080078 C8.232568 300.69131557 7.23749997 302.09001682 6.25390625 303.49609375 C5.84011719 303.99238281 5.42632813 304.48867188 5 305 C4.34 305 3.68 305 3 305 C2.71125 305.598125 2.4225 306.19625 2.125 306.8125 C1 309 1 309 -1 312 C-1.66 312 -2.32 312 -3 312 C-3 312.66 -3 313.32 -3 314 C-3.66 314 -4.32 314 -5 314 C-5 314.66 -5 315.32 -5 316 C-6.375 317.625 -6.375 317.625 -8 319 C-8.66 319 -9.32 319 -10 319 C-10 319.66 -10 320.32 -10 321 C-11.56940801 322.43812673 -13.20874035 323.8003005 -14.875 325.125 C-15.87917969 325.92679687 -16.88335938 326.72859375 -17.91796875 327.5546875 C-18.93503906 328.36164063 -19.95210937 329.16859375 -21 330 C-21.88300781 330.72445313 -22.76601563 331.44890625 -23.67578125 332.1953125 C-36.88379278 343 -36.88379278 343 -41 343 C-41 343.66 -41 344.32 -41 345 C-71.35438227 359.49385789 -100.92178881 369.49619069 -135 368 C-135.74233887 367.9695459 -136.48467773 367.9390918 -137.24951172 367.90771484 C-169.19809803 366.32008156 -196.66412122 354.8889858 -222 336 C-222.76441406 335.46890625 -223.52882813 334.9378125 -224.31640625 334.390625 C-224.87199219 333.93171875 -225.42757812 333.4728125 -226 333 C-226 332.34 -226 331.68 -226 331 C-226.99 330.67 -227.98 330.34 -229 330 C-229 329.34 -229 328.68 -229 328 C-229.56589844 327.78214844 -230.13179687 327.56429688 -230.71484375 327.33984375 C-233.74224102 325.56480569 -235.40076645 323.31678996 -237.5625 320.5625 C-240.49057586 316.7870446 -240.49057586 316.7870446 -243.77734375 313.33984375 C-245 312 -245 312 -245 309 C-245.66 309 -246.32 309 -247 309 C-248.48579556 306.88227895 -249.81874274 304.78898707 -251.125 302.5625 C-251.52315918 301.88727295 -251.92131836 301.2120459 -252.33154297 300.51635742 C-268.07338767 273.33185885 -275.56942466 244.02668612 -279 213 C-279.08292297 212.33407837 -279.16584595 211.66815674 -279.25128174 210.98205566 C-279.8851702 205.72187609 -280.1720839 200.54620972 -280.203125 195.25 C-280.21009399 194.44234192 -280.21706299 193.63468384 -280.22424316 192.80255127 C-280.24156549 190.20164728 -280.24796622 187.60095933 -280.25 185 C-280.25100708 184.1090564 -280.25201416 183.21811279 -280.25305176 182.3001709 C-280.24189461 167.68102866 -279.47464828 153.43324742 -277 139 C-276.85546387 138.12585449 -276.71092773 137.25170898 -276.56201172 136.35107422 C-270.28887917 99.28887917 -270.28887917 99.28887917 -262 91 C-259.0625 90.9375 -259.0625 90.9375 -256 92 C-254.1875 95.375 -254.1875 95.375 -253 99 C-252.67 99.99 -252.34 100.98 -252 102 C-251.23600111 110.77972498 -252.09866408 119.19163044 -253.43505859 127.86914062 C-257.69501578 155.71902494 -258.7731911 184.68073645 -251 212 C-250.80776855 212.70253906 -250.61553711 213.40507812 -250.41748047 214.12890625 C-246.06351067 229.53705675 -237.0096637 242.74291613 -227 255 C-225.92685547 256.38638672 -225.92685547 256.38638672 -224.83203125 257.80078125 C-223.18815754 260.07299578 -223.18815754 260.07299578 -221 261 C-221 261.66 -221 262.32 -221 263 C-220.01 263.33 -219.02 263.66 -218 264 C-218 264.66 -218 265.32 -218 266 C-216.35 266.66 -214.7 267.32 -213 268 C-213 268.66 -213 269.32 -213 270 C-212.45472656 270.24621094 -211.90945313 270.49242187 -211.34765625 270.74609375 C-208.49460347 272.26993725 -206.03907199 274.13930402 -203.4375 276.0625 C-190.94180688 284.93333598 -172.70172823 295 -157 295 C-157.96679688 294.29875 -158.93359375 293.5975 -159.9296875 292.875 C-178.13276353 279.63065259 -178.13276353 279.63065259 -182 276 C-182 275.34 -182 274.68 -182 274 C-182.59530518 273.72921631 -183.19061035 273.45843262 -183.80395508 273.17944336 C-185.97403559 272.01394487 -187.39984624 270.85807034 -189.13671875 269.12890625 C-189.70946533 268.56034912 -190.28221191 267.99179199 -190.87231445 267.40600586 C-191.47132568 266.79764893 -192.07033691 266.18929199 -192.6875 265.5625 C-193.62178833 264.6180603 -193.62178833 264.6180603 -194.57495117 263.65454102 C-219.09043203 238.59321385 -234.20174602 208.23853907 -241 174 C-241.18546387 173.16782959 -241.37092773 172.33565918 -241.56201172 171.47827148 C-243.62820805 161.15005458 -243.39428845 150.67548534 -243.375 140.1875 C-243.37518127 138.68240875 -243.37518127 138.68240875 -243.37536621 137.14691162 C-243.34994485 122.35788707 -242.6666242 108.39044448 -239 94 C-238.69401011 92.64772211 -238.39050448 91.29487897 -238.08984375 89.94140625 C-232.43731756 66.42591849 -220.78378462 40.43255767 -205 22 C-204.34 22 -203.68 22 -203 22 C-202.7421875 21.42765625 -202.484375 20.8553125 -202.21875 20.265625 C-200.88634058 17.78871005 -199.34943882 15.8658834 -197.5 13.75 C-196.8915625 13.04359375 -196.283125 12.3371875 -195.65625 11.609375 C-194 10 -194 10 -192 10 C-192 9.34 -192 8.68 -192 8 C-182.63787104 -0.86536293 -170.86211257 -9.88301026 -159 -15 C-157.14581025 -15.85411656 -155.29164521 -16.70828676 -153.4375 -17.5625 C-151.62833681 -18.38240308 -149.81560686 -19.1944665 -148 -20 C-146.32357422 -20.75603516 -146.32357422 -20.75603516 -144.61328125 -21.52734375 C-138.27955828 -24.10876381 -131.66489954 -25.54933568 -125 -27 C-124.29359375 -27.15533203 -123.5871875 -27.31066406 -122.859375 -27.47070312 C-81.50162534 -36.1875281 -33.20161784 -26.9265589 0 0 Z M-130 31 C-131.26070312 31.36222656 -132.52140625 31.72445312 -133.8203125 32.09765625 C-152.97849593 37.75898093 -168.71198828 46.22808323 -184 59 C-185.29550781 60.01126953 -185.29550781 60.01126953 -186.6171875 61.04296875 C-189.49698012 63.40817548 -191.65330505 66.11176006 -194 69 C-194.763125 69.7425 -195.52625 70.485 -196.3125 71.25 C-198.23137852 72.83476788 -198.23137852 72.83476788 -198 75 C-198.66 75 -199.32 75 -200 75 C-201.22498 76.4316099 -201.22498 76.4316099 -202.390625 78.33203125 C-203.07958862 79.39719971 -203.07958862 79.39719971 -203.7824707 80.48388672 C-204.26675537 81.2523291 -204.75104004 82.02077148 -205.25 82.8125 C-205.74653076 83.59641113 -206.24306152 84.38032227 -206.75463867 85.18798828 C-208.17949843 87.45274328 -209.59048022 89.72567946 -211 92 C-211.60972656 92.96035156 -212.21945312 93.92070312 -212.84765625 94.91015625 C-224.2284438 114.0602281 -228.30026666 138.94538968 -222.96875 160.54296875 C-214.93798146 189.20115487 -198.43252121 212.70413282 -178 234 C-177.1853125 234.8559375 -176.370625 235.711875 -175.53125 236.59375 C-172.85056894 239.38774925 -172.85056894 239.38774925 -170 242 C-169.34 242 -168.68 242 -168 242 C-168 242.66 -168 243.32 -168 244 C-164.52001493 247.63633539 -164.52001493 247.63633539 -160 249 C-160 249.66 -160 250.32 -160 251 C-158.34577678 252.44704725 -158.34577678 252.44704725 -156.25 253.875 C-153.19367861 256.03706439 -150.63492315 258.34472995 -148 261 C-146.47996003 262.27621103 -144.93800125 263.52678163 -143.375 264.75 C-142.21097656 265.67039062 -142.21097656 265.67039062 -141.0234375 266.609375 C-139.13449283 268.18879792 -139.13449283 268.18879792 -137 268 C-137 268.66 -137 269.32 -137 270 C-134.8501444 271.76078549 -134.8501444 271.76078549 -132.07421875 273.58984375 C-131.05005859 274.29173828 -130.02589844 274.99363281 -128.97070312 275.71679688 C-127.88724609 276.44962891 -126.80378906 277.18246094 -125.6875 277.9375 C-123.56451333 279.38133519 -121.44333861 280.82783919 -119.32421875 282.27734375 C-118.37635498 282.91921631 -117.42849121 283.56108887 -116.4519043 284.22241211 C-114 286 -114 286 -112.29223633 287.73266602 C-111.06367836 289.23339804 -111.06367836 289.23339804 -109 289 C-109 289.66 -109 290.32 -109 291 C-107.66666667 292.66666667 -107.66666667 292.66666667 -106 294 C-105.34 294 -104.68 294 -104 294 C-104 294.66 -104 295.32 -104 296 C-103.34 296 -102.68 296 -102 296 C-101.505 297.485 -101.505 297.485 -101 299 C-71.74071817 295.04951519 -45.47114051 285.34162034 -22.13671875 266.69921875 C-19.38662205 264.51221315 -16.56083277 262.43550713 -13.7265625 260.359375 C-11.99785247 258.99830918 -10.45086436 257.65558755 -9 256 C-9 255.34 -9 254.68 -9 254 C-8.34 254 -7.68 254 -7 254 C11.63408649 234.01281594 25.25318839 209.12517859 32.6875 182.9375 C32.89004395 182.23012695 33.09258789 181.52275391 33.30126953 180.79394531 C36.28698714 169.87204589 37.39004067 159.18483504 37.375 147.875 C37.37338867 146.60470947 37.37177734 145.33441895 37.37011719 144.02563477 C37.23818717 133.8482687 35.93626073 124.7161683 33 115 C32.566875 113.42025391 32.566875 113.42025391 32.125 111.80859375 C27.34800548 95.7928666 18.40519504 80.71723412 7.25 68.375 C6.79004639 67.86549805 6.33009277 67.35599609 5.85620117 66.83105469 C3.4448667 64.25416328 1.30002921 62.31075926 -2 61 C-2 60.34 -2 59.68 -2 59 C-3.87977749 57.34155115 -5.75331441 55.81934253 -7.75 54.3125 C-8.33692627 53.86624268 -8.92385254 53.41998535 -9.52856445 52.96020508 C-15.07769734 48.81567085 -20.88052246 45.24598374 -27 42 C-28.09199707 41.41569214 -28.09199707 41.41569214 -29.20605469 40.81958008 C-35.26732809 37.66769402 -41.35390086 35.32770673 -47.875 33.3125 C-49.32289917 32.85979736 -49.32289917 32.85979736 -50.80004883 32.39794922 C-64.97666016 28.06438298 -79.15671539 26.80510049 -93.9375 26.875 C-94.99291992 26.87910889 -96.04833984 26.88321777 -97.13574219 26.88745117 C-108.58597429 26.96979509 -118.96577158 27.81145198 -130 31 Z " fill="#F9AE40" transform="translate(938,131)"/>
<path d="M0 0 C0.76940918 0.1551709 1.53881836 0.3103418 2.33154297 0.47021484 C10.88549168 2.2357153 18.99065478 4.46358754 27 8 C28.58227388 8.60693588 30.16564813 9.21100939 31.75 9.8125 C42.44321382 14.10992973 52.48100256 19.51870188 62 26 C62.81186768 26.54696533 62.81186768 26.54696533 63.64013672 27.10498047 C72.45112807 33.07259407 80.35057828 39.61045523 88 47 C88.75925781 47.71929687 89.51851562 48.43859375 90.30078125 49.1796875 C93.83717792 52.59560572 93.83717792 52.59560572 95 54 C95 54.66 95 55.32 95 56 C95.66 56 96.32 56 97 56 C98.40112305 57.55371094 98.40112305 57.55371094 100.01171875 59.734375 C100.60114258 60.5294043 101.19056641 61.32443359 101.79785156 62.14355469 C102.42143555 63.00368164 103.04501953 63.86380859 103.6875 64.75 C104.32526367 65.62817383 104.96302734 66.50634766 105.62011719 67.41113281 C125.9303472 95.64578437 138.01473419 130.75958222 138.23828125 165.625 C138.246353 166.84413086 138.25442474 168.06326172 138.26274109 169.31933594 C138.27653893 171.90135294 138.2872802 174.48338786 138.29516602 177.06542969 C138.30659605 179.6598866 138.32690194 182.25432172 138.35668945 184.84863281 C138.60273399 206.33010741 137.08182477 226.95169987 130.625 247.5625 C130.17338501 249.05040039 130.17338501 249.05040039 129.71264648 250.56835938 C123.61112765 270.29108938 114.2952106 288.19151935 104 306 C103.45988281 306.97582031 102.91976563 307.95164062 102.36328125 308.95703125 C101.68845703 309.96830078 101.68845703 309.96830078 101 311 C100.34 311 99.68 311 99 311 C98.66548828 312.04220703 98.66548828 312.04220703 98.32421875 313.10546875 C96.68920399 316.67935058 94.38204606 319.38903858 91.8125 322.3125 C91.06613281 323.17560791 91.06613281 323.17560791 90.3046875 324.05615234 C89.31607468 325.19787176 88.32477417 326.33727043 87.33056641 327.47412109 C86.24465227 328.71943547 85.17294121 329.97712307 84.10546875 331.23828125 C64.90761074 353.79926767 40.5092029 370.22041895 14 383 C13.03964844 383.46535156 12.07929687 383.93070312 11.08984375 384.41015625 C4.54500799 387.48952502 -2.10385809 389.83730461 -9 392 C-10.29835611 392.4174123 -11.59652435 392.83540928 -12.89453125 393.25390625 C-37.42055508 401.08364695 -61.07256465 404.38706143 -86.75 404.375 C-87.69157959 404.37672211 -88.63315918 404.37844421 -89.60327148 404.38021851 C-105.1341933 404.37700348 -120.00881649 403.40288029 -135 399 C-135.67434082 398.80422363 -136.34868164 398.60844727 -137.04345703 398.40673828 C-147.98444773 395.17543619 -157.28648167 390.97341017 -167 385 C-168.32364896 384.31430644 -169.65265467 383.63787364 -171 383 C-171 382.34 -171 381.68 -171 381 C-171.7425 380.731875 -172.485 380.46375 -173.25 380.1875 C-175.89061949 379.04723249 -177.85552844 377.90619694 -180 376 C-180 375.34 -180 374.68 -180 374 C-180.639375 373.731875 -181.27875 373.46375 -181.9375 373.1875 C-184 372 -184 372 -185 369 C-185.66 369 -186.32 369 -187 369 C-187 368.34 -187 367.68 -187 367 C-187.66 367 -188.32 367 -189 367 C-190.86212523 364.72406916 -192.60092344 362.44808575 -194.3125 360.0625 C-194.81160889 359.37244873 -195.31071777 358.68239746 -195.82495117 357.97143555 C-199.27087237 353.15121786 -202.35904725 348.30990147 -205 343 C-205.47824219 342.09121094 -205.95648437 341.18242187 -206.44921875 340.24609375 C-211.297022 330.88018671 -215.17117992 321.42146617 -217.75 311.1875 C-219.25252125 305.69239203 -221.36676101 301.22669117 -224.25 296.375 C-243.82161215 263.40183682 -249.32402086 222.50384524 -243 185 C-242.81274061 183.66569416 -242.62791913 182.3310443 -242.4453125 180.99609375 C-237.2654477 145.44775607 -218.46115695 113.1179801 -195.08203125 86.44140625 C-192.99733235 84.19474876 -192.99733235 84.19474876 -192 82 C-191.34 82 -190.68 82 -190 82 C-189.773125 81.46375 -189.54625 80.9275 -189.3125 80.375 C-187.54429911 77.17539839 -185.46329797 74.70962777 -183 72 C-182.34 72 -181.68 72 -181 72 C-181 71.34 -181 70.68 -181 70 C-180.34 70 -179.68 70 -179 70 C-178.5978125 69.1028125 -178.5978125 69.1028125 -178.1875 68.1875 C-177.00082594 66.00152146 -175.90400887 64.58667406 -174 63 C-173.34 63 -172.68 63 -172 63 C-171.505 61.515 -171.505 61.515 -171 60 C-170.34 60 -169.68 60 -169 60 C-169 59.34 -169 58.68 -169 58 C-168.34 58 -167.68 58 -167 58 C-167 57.34 -167 56.68 -167 56 C-165.47162731 54.60400604 -163.87349901 53.28412351 -162.25 52 C-161.23808594 51.19304687 -160.22617188 50.38609375 -159.18359375 49.5546875 C-158.65362793 49.1328418 -158.12366211 48.71099609 -157.57763672 48.27636719 C-155.11002576 46.27997751 -152.72042952 44.19271451 -150.3125 42.125 C-139.68669554 33.26327202 -128.10509932 25.68189051 -116 19 C-115.43490723 18.6793457 -114.86981445 18.35869141 -114.28759766 18.02832031 C-104.8387244 12.66925787 -95.26772898 8.52577387 -85 5 C-84.30567871 4.74959961 -83.61135742 4.49919922 -82.89599609 4.24121094 C-77.13608894 2.21639281 -71.37744711 0.9561324 -65.375 -0.125 C-64.47265625 -0.29386719 -63.5703125 -0.46273437 -62.640625 -0.63671875 C-60.09638623 -1.10773671 -57.54927054 -1.55715529 -55 -2 C-53.90300781 -2.19851562 -52.80601562 -2.39703125 -51.67578125 -2.6015625 C-34.51149782 -4.46209057 -16.88411019 -3.46387223 0 0 Z M-26 45 C-26.268125 46.010625 -26.53625 47.02125 -26.8125 48.0625 C-27.16404385 49.38754989 -27.57062166 50.69808813 -28 52 C-28.33 53.17304688 -28.66 54.34609375 -29 55.5546875 C-31.46411579 59.79951197 -33.00288496 60.22166964 -37.56420898 61.4440918 C-38.42989502 61.6481665 -39.29558105 61.85224121 -40.1875 62.0625 C-41.99601039 62.54493347 -43.80329438 63.03198589 -45.609375 63.5234375 C-46.51365234 63.76416992 -47.41792969 64.00490234 -48.34960938 64.25292969 C-52.29070883 65.36381439 -56.11108233 66.73541192 -59.9375 68.1875 C-60.58033936 68.4254126 -61.22317871 68.6633252 -61.88549805 68.90844727 C-65.51362395 70.2908441 -68.71512278 71.94436929 -72 74 C-74.26429425 75.24384495 -76.53219635 76.47386271 -78.8125 77.6875 C-79.46049561 78.03345215 -80.10849121 78.3794043 -80.77612305 78.73583984 C-85.58039998 81.28514205 -90.43459635 83.72029333 -95.3125 86.125 C-101.40254025 89.13277887 -107.22482621 92.42025745 -113 96 C-114.134375 96.639375 -115.26875 97.27875 -116.4375 97.9375 C-117.62700114 98.62153183 -118.81431182 99.30937996 -120 100 C-120.75152344 100.43183594 -121.50304688 100.86367187 -122.27734375 101.30859375 C-130.92359221 106.52234658 -138.48133299 112.98385234 -146.18066406 119.48168945 C-147.7153118 120.76241601 -149.28027777 122.00668416 -150.8515625 123.2421875 C-153.64257605 125.52574404 -155.72256591 128.21014324 -158 131 C-158.79277344 131.79148437 -159.58554688 132.58296875 -160.40234375 133.3984375 C-188.96449409 162.00353844 -207.15302071 204.31777537 -207.32348633 244.72949219 C-207.14205449 258.96095407 -205.34114697 277.39369542 -195 288 C-194.34 288 -193.68 288 -193 288 C-193 288.66 -193 289.32 -193 290 C-192.34 290 -191.68 290 -191 290 C-190.731875 290.598125 -190.46375 291.19625 -190.1875 291.8125 C-189.00082594 293.99847854 -187.90400887 295.41332594 -186 297 C-185.34 297 -184.68 297 -184 297 C-183.67 297.99 -183.34 298.98 -183 300 C-182.34 300 -181.68 300 -181 300 C-181 300.66 -181 301.32 -181 302 C-179.05624046 303.81628776 -179.05624046 303.81628776 -176.625 305.625 C-175.40683594 306.57246094 -175.40683594 306.57246094 -174.1640625 307.5390625 C-172.15890121 309.18650808 -172.15890121 309.18650808 -170 309 C-170 309.66 -170 310.32 -170 311 C-167.93030196 312.67993009 -165.86850411 314.22630405 -163.6875 315.75 C-163.0473999 316.20101074 -162.4072998 316.65202148 -161.74780273 317.11669922 C-156.369865 320.85035411 -150.81582445 323.99803131 -145 327 C-143.82360277 327.65149646 -142.64923762 328.30667117 -141.4765625 328.96484375 C-134.10024405 333.06909068 -126.85775883 336.37064038 -118.828125 338.9921875 C-116 340 -116 340 -113 342 C-111.48134131 342.52913248 -109.9429318 343.0030335 -108.39453125 343.4375 C-107.49283203 343.69273437 -106.59113281 343.94796875 -105.66210938 344.2109375 C-104.25155273 344.60152344 -104.25155273 344.60152344 -102.8125 345 C-101.43094727 345.39058594 -101.43094727 345.39058594 -100.02148438 345.7890625 C-97.35116951 346.53955554 -94.67673875 347.27279204 -92 348 C-91.25943359 348.20665283 -90.51886719 348.41330566 -89.75585938 348.6262207 C-83.39559116 350.33224594 -77.53178739 350.22242182 -71 350 C-69.99839844 349.98195313 -68.99679687 349.96390625 -67.96484375 349.9453125 C-43.5460603 348.91651617 -17.13671761 342.36039826 5 332 C5.87785156 331.61328125 6.75570313 331.2265625 7.66015625 330.828125 C10.45829501 329.58808653 13.23106358 328.30391052 16 327 C17.04542969 326.51015625 18.09085938 326.0203125 19.16796875 325.515625 C32.56583107 319.0402485 45.18003715 311.31078565 57.125 302.4375 C57.81835449 301.92485596 58.51170898 301.41221191 59.22607422 300.8840332 C60.85881838 299.64201872 62.43597245 298.32750567 64 297 C64 296.34 64 295.68 64 295 C65.1446875 294.5978125 65.1446875 294.5978125 66.3125 294.1875 C68.88988618 293.04865495 70.26954864 292.18583329 72 290 C72 289.34 72 288.68 72 288 C72.66 288 73.32 288 74 288 C74 287.34 74 286.68 74 286 C74.99 285.67 75.98 285.34 77 285 C77 284.34 77 283.68 77 283 C77.66 283 78.32 283 79 283 C79 282.34 79 281.68 79 281 C79.66 281 80.32 281 81 281 C82.81067374 279.28668011 82.81067374 279.28668011 84.625 277.125 C85.25664063 276.40570313 85.88828125 275.68640625 86.5390625 274.9453125 C88.20017123 273.13893067 88.20017123 273.13893067 88 271 C88.66 271 89.32 271 90 271 C99.7449278 258.96820753 107.67826858 244.4952055 113 230 C113.64582031 228.26169922 113.64582031 228.26169922 114.3046875 226.48828125 C118.58431539 214.37110996 121.26778863 201.85946216 122 189 C122.04125 188.33742188 122.0825 187.67484375 122.125 186.9921875 C123.02674153 157.34743454 110.33865581 126.90429626 92 104 C91.34 104 90.68 104 90 104 C90 103.34 90 102.68 90 102 C89.34 102 88.68 102 88 102 C87.78472656 101.45988281 87.56945313 100.91976562 87.34765625 100.36328125 C85.52173603 97.16130522 83.04576951 94.74969843 80.4375 92.1875 C79.90463379 91.65995117 79.37176758 91.13240234 78.82275391 90.58886719 C71.82193816 82.85140017 71.82193816 82.85140017 63 79 C63 78.34 63 77.68 63 77 C60.82777154 75.38193386 60.82777154 75.38193386 58.0625 73.75 C54.51947086 71.57279507 51.06924269 69.35576506 47.6875 66.9375 C41.88554959 63.04190472 35.44659296 60.6227043 29 58 C27.47826172 57.33291016 27.47826172 57.33291016 25.92578125 56.65234375 C9.42828515 49.4498321 -8.06426398 45.80144275 -26 45 Z M-213 163 C-212 165 -212 165 -212 165 Z M-214 165 C-213 168 -213 168 -213 168 Z M-215 168 C-225.48655371 187.56796127 -232.32710392 206.44547814 -227 229 C-226.34 229.99 -225.68 230.98 -225 232 C-224.93530518 231.27224365 -224.87061035 230.5444873 -224.80395508 229.79467773 C-223.04044857 210.50509544 -220.63689849 191.55116097 -214.47070312 173.11572266 C-213.7713072 170.82823629 -213.7713072 170.82823629 -215 168 Z " fill="#8F268D" transform="translate(1542,104)"/>
<path d="M0 0 C0.89799316 0.00725098 1.79598633 0.01450195 2.72119141 0.02197266 C35.60374809 0.36822838 71.08189857 8.07115999 98 28 C99.62808594 29.12535156 99.62808594 29.12535156 101.2890625 30.2734375 C107.8445398 34.81559888 113.99009742 39.51929428 119.81640625 44.9921875 C122.03750359 47.09391624 122.03750359 47.09391624 124.77734375 49.1328125 C125.51082031 49.74898437 126.24429687 50.36515625 127 51 C127 51.66 127 52.32 127 53 C127.66 53 128.32 53 129 53 C129 53.66 129 54.32 129 55 C129.66 55 130.32 55 131 55 C131 55.66 131 56.32 131 57 C131.66 57 132.32 57 133 57 C137 61.47058824 137 61.47058824 137 64 C137.66 64 138.32 64 139 64 C140.32519531 65.55371094 140.32519531 65.55371094 141.828125 67.734375 C142.37782959 68.53020996 142.92753418 69.32604492 143.49389648 70.14599609 C144.07341064 71.00531738 144.6529248 71.86463867 145.25 72.75 C145.84047119 73.62092285 146.43094238 74.4918457 147.03930664 75.38916016 C151.28325432 81.7359648 154.87164147 88.02962615 158 95 C158.474375 95.95003906 158.94875 96.90007812 159.4375 97.87890625 C167.33718336 113.98685435 172.29076163 131.2984013 175 149 C175.17805176 150.16144531 175.35610352 151.32289063 175.53955078 152.51953125 C176.87195951 162.05328814 177.31279456 171.40468576 177.26074219 181.02636719 C177.2500375 183.36680171 177.26070723 185.70646367 177.2734375 188.046875 C177.28822778 202.73823717 175.92589241 217.23946301 172.875 231.625 C172.66472168 232.62007568 172.45444336 233.61515137 172.23779297 234.64038086 C168.51217194 251.42937203 162.88627503 267.71382814 155 283 C154.69094727 283.61101562 154.38189453 284.22203125 154.06347656 284.8515625 C150.40166491 292.07852884 146.45493755 299.08862873 142.125 305.9375 C141.74359863 306.54730713 141.36219727 307.15711426 140.96923828 307.78540039 C140.03582541 309.22830986 139.02462711 310.62036723 138 312 C137.34 312 136.68 312 136 312 C135.75894531 312.721875 135.51789063 313.44375 135.26953125 314.1875 C133.82453626 317.38871967 132.07488504 319.43205643 129.6875 322 C128.47707031 323.30710937 128.47707031 323.30710937 127.2421875 324.640625 C124.86847559 327.13839851 122.4697587 329.59699153 120 332 C119.484375 332.53753906 118.96875 333.07507813 118.4375 333.62890625 C116.99558555 335.12281281 115.50111987 336.56559656 114 338 C113.34 338 112.68 338 112 338 C112 338.66 112 339.32 112 340 C110.18349142 341.62046044 108.37455816 343.09721102 106.4375 344.5625 C105.56544922 345.2263269 105.56544922 345.2263269 104.67578125 345.90356445 C98.10051013 350.80966103 91.1312306 354.96252099 84 359 C82.86046875 359.65226562 81.7209375 360.30453125 80.546875 360.9765625 C74.64729246 364.26187505 68.8307476 366.98961491 62.4375 369.1640625 C59.20529059 370.27254457 56.12692087 371.62415482 53 373 C52.26136719 373.2578125 51.52273437 373.515625 50.76171875 373.78125 C46.41388899 375.69995281 42.68408862 378.48910842 38.79101562 381.19140625 C34.36063827 384.21769478 29.85294832 386.71671594 25 389 C24.09894531 389.43183594 23.19789063 389.86367188 22.26953125 390.30859375 C-3.53968738 402.16688339 -29.38493118 408.38605594 -57.76977539 408.31567383 C-60.43091653 408.31250783 -63.09094774 408.3360972 -65.75195312 408.36132812 C-88.6814217 408.445778 -109.18766806 403.35169478 -128.4453125 390.61328125 C-130.62042587 389.23970049 -132.72967338 388.18493575 -135.0625 387.125 C-138.09247324 384.93310446 -138.54773254 384.51083986 -139.5 381.125 C-140.82183524 372.35150018 -140.3008206 362.8536724 -136 355 C-130.53862186 354.90247539 -125.40744018 355.22750855 -120 356 C-125.0441306 352.05343485 -130.1064555 348.14424248 -135.2734375 344.359375 C-137.00214753 342.99830918 -138.54913564 341.65558755 -140 340 C-140 339.34 -140 338.68 -140 338 C-140.66 338 -141.32 338 -142 338 C-142 337.34 -142 336.68 -142 336 C-142.66 336 -143.32 336 -144 336 C-167.97845519 307.81013891 -181.04971061 272.48923553 -181.203125 235.484375 C-181.20882507 234.39272034 -181.21452515 233.30106567 -181.22039795 232.17633057 C-181.22980549 229.87016759 -181.23636495 227.56399142 -181.24023438 225.2578125 C-181.24985571 221.80183048 -181.28088568 218.34646573 -181.3125 214.890625 C-181.40339579 196.2031553 -179.65669673 178.44905255 -174.75 160.375 C-174.44843994 159.2411084 -174.14687988 158.1072168 -173.83618164 156.93896484 C-165.23845148 125.39686432 -150.12351261 95.74460551 -130 70 C-129.35933594 69.16597656 -128.71867187 68.33195312 -128.05859375 67.47265625 C-126.38712273 65.30299301 -124.69901225 63.14812771 -123 61 C-122.51402344 60.37738281 -122.02804688 59.75476563 -121.52734375 59.11328125 C-120.39942042 57.70255499 -119.20637879 56.34425066 -118 55 C-117.34 55 -116.68 55 -116 55 C-115.690625 54.20335937 -115.690625 54.20335937 -115.375 53.390625 C-113.42038808 49.99226564 -110.77876283 47.48944072 -108 44.75 C-107.4534375 44.19570312 -106.906875 43.64140625 -106.34375 43.0703125 C-102.2533867 39 -102.2533867 39 -100 39 C-99.67 38.01 -99.34 37.02 -99 36 C-97.05098973 34.33803101 -95.12647627 32.81553498 -93.0625 31.3125 C-92.23588867 30.68891602 -92.23588867 30.68891602 -91.39257812 30.05273438 C-87.26712592 27 -87.26712592 27 -85 27 C-85 26.34 -85 25.68 -85 25 C-83.5459375 24.195625 -83.5459375 24.195625 -82.0625 23.375 C-79.13177162 21.7087391 -76.34471964 19.90311552 -73.5625 18 C-66.46877052 13.23090484 -58.95200128 10.06829631 -51 7 C-50.34257812 6.731875 -49.68515625 6.46375 -49.0078125 6.1875 C-32.99921375 -0.18936921 -16.94135318 -0.25509566 0 0 Z M-25 41 C-26.13050781 41.26554687 -27.26101562 41.53109375 -28.42578125 41.8046875 C-38.01151969 44.25811546 -46.33769023 48.34883181 -55 53 C-56.04800781 53.55300781 -57.09601563 54.10601562 -58.17578125 54.67578125 C-66.37409256 58.88588873 -66.37409256 58.88588873 -74 64 C-74 64.66 -74 65.32 -74 66 C-74.7425 66.268125 -75.485 66.53625 -76.25 66.8125 C-78.89061949 67.95276751 -80.85552844 69.09380306 -83 71 C-83 71.66 -83 72.32 -83 73 C-83.763125 73.268125 -84.52625 73.53625 -85.3125 73.8125 C-87.88988618 74.95134505 -89.26954864 75.81416671 -91 78 C-91 78.66 -91 79.32 -91 80 C-91.99 80.33 -92.98 80.66 -94 81 C-94 81.66 -94 82.32 -94 83 C-94.66 83 -95.32 83 -96 83 C-96 83.66 -96 84.32 -96 85 C-96.66 85 -97.32 85 -98 85 C-98 85.66 -98 86.32 -98 87 C-98.66 87 -99.32 87 -100 87 C-101.58533702 88.71332754 -103.09541215 90.49689047 -104.5625 92.3125 C-105.36816406 93.29863281 -106.17382812 94.28476563 -107.00390625 95.30078125 C-109.13643993 97.89295622 -109.13643993 97.89295622 -110 101 C-110.66 101 -111.32 101 -112 101 C-114.61968029 104.46930632 -116.76300031 108.27605346 -119 112 C-119.65742187 113.08410156 -120.31484375 114.16820312 -120.9921875 115.28515625 C-128.41144239 127.85747339 -134.19801069 140.87317715 -138 155 C-138.50853516 156.84851563 -138.50853516 156.84851563 -139.02734375 158.734375 C-147.61404141 193.66050908 -136.37683426 230.26673955 -118.32910156 260.25927734 C-110.88313142 272.32955663 -101.68349944 282.70191314 -92 293 C-91.02933594 294.03447266 -91.02933594 294.03447266 -90.0390625 295.08984375 C-88.73803162 296.43847332 -87.37694462 297.7289742 -86 299 C-85.34 299 -84.68 299 -84 299 C-84 299.66 -84 300.32 -84 301 C-82.07645534 302.64918328 -80.15350502 304.17694706 -78.125 305.6875 C-77.53219238 306.13448242 -76.93938477 306.58146484 -76.32861328 307.04199219 C-74.55869052 308.37003011 -72.78094019 309.68678664 -71 311 C-70.10796875 311.66128906 -69.2159375 312.32257813 -68.296875 313.00390625 C-62.45600249 317.21498692 -56.36442441 320.65030294 -50 324 C-48.80741086 324.6567106 -47.61606431 325.31568135 -46.42578125 325.9765625 C-39.22728667 329.94165326 -32.22303205 333.26304151 -24.4140625 335.89453125 C-23.61742187 336.25933594 -22.82078125 336.62414062 -22 337 C-21.505 338.485 -21.505 338.485 -21 340 C6.07146807 340.24963444 32.30173875 338.24822572 58 329 C58 328.34 58 327.68 58 327 C58.66515625 326.81308594 59.3303125 326.62617188 60.015625 326.43359375 C64.2937736 324.37851451 67.33522962 321.31607216 70.75 318.0625 C71.43449219 317.42892578 72.11898437 316.79535156 72.82421875 316.14257812 C76.71786198 312.62213529 76.71786198 312.62213529 79 308 C79.66 308 80.32 308 81 308 C81 307.34 81 306.68 81 306 C81.66 306 82.32 306 83 306 C83 305.34 83 304.68 83 304 C83.66 304 84.32 304 85 304 C90.70026225 297.22520556 95.34777894 289.5142763 100 282 C100.49113281 281.2471875 100.98226562 280.494375 101.48828125 279.71875 C111.91360226 263.3080021 117.98292614 244.39092509 122.3125 225.5625 C122.47202148 224.87800781 122.63154297 224.19351563 122.79589844 223.48828125 C127.06762623 203.72328908 126.64903728 180.8180473 123 161 C122.82259277 159.9788208 122.82259277 159.9788208 122.64160156 158.93701172 C117.35786722 129.20424198 103.31915574 102.16708778 83.37109375 79.73046875 C81 77 81 77 80 75 C79.34 75 78.68 75 78 75 C78 74.34 78 73.68 78 73 C76.41005885 71.54082037 74.75012428 70.15750645 73.0625 68.8125 C71.54849609 67.60400391 71.54849609 67.60400391 70.00390625 66.37109375 C69.01261719 65.58863281 68.02132812 64.80617188 67 64 C66.22527344 63.37222656 65.45054687 62.74445313 64.65234375 62.09765625 C37.56908068 40.42121521 9.00610917 32.46965397 -25 41 Z M104 71 C105.39738241 74.63187597 106.9930331 78.09107347 108.75 81.5625 C109.28238281 82.6246875 109.81476563 83.686875 110.36328125 84.78125 C111.38484511 86.79024432 112.42144885 88.7917456 113.48046875 90.78125 C118.23416197 99.85532392 121.73254043 109.30995254 125 119 C125.24137695 119.71365723 125.48275391 120.42731445 125.73144531 121.16259766 C131.88007691 139.85918774 134.49029013 160.36508953 135 180 C135.02046387 180.65452148 135.04092773 181.30904297 135.06201172 181.98339844 C135.42971636 195.06882145 134.43048514 207.99847948 133 221 C132.90879883 221.83756836 132.81759766 222.67513672 132.72363281 223.53808594 C130.21573474 245.36999867 124.18227219 266.502136 115.88476562 286.80615234 C114.52405772 290.18013722 113.26324105 293.58846938 112 297 C126.49102955 290.9480619 138.68846543 269.95141487 146 257 C146.58265625 255.98292969 147.1653125 254.96585938 147.765625 253.91796875 C165.93183704 220.08135307 169.53922504 181.84998867 158.70751953 145.26757812 C152.32639722 124.8162793 141.37546262 106.45303941 126.71484375 90.890625 C125 89 125 89 124 87 C123.34 87 122.68 87 122 87 C122 86.34 122 85.68 122 85 C121.34 85 120.68 85 120 85 C120 84.34 120 83.68 120 83 C118.41858579 81.36118548 118.41858579 81.36118548 116.375 79.6875 C115.64796875 79.07132813 114.9209375 78.45515625 114.171875 77.8203125 C113.45515625 77.21960938 112.7384375 76.61890625 112 76 C111.40703125 75.48179687 110.8140625 74.96359375 110.203125 74.4296875 C107.49432472 71.81080465 107.49432472 71.81080465 104 71 Z M-151 151 C-150 154 -150 154 -150 154 Z M-152 154 C-166.21201092 188.43116048 -174.24849029 223.14607279 -160 259 C-156.34435553 267.63793412 -151.77244828 275.66993385 -146.625 283.5 C-146.19614502 284.15363525 -145.76729004 284.80727051 -145.32543945 285.48071289 C-144.27403279 287.02751604 -143.14383782 288.52023955 -142 290 C-141.34 290 -140.68 290 -140 290 C-139.7421875 290.58265625 -139.484375 291.1653125 -139.21875 291.765625 C-137.90165983 294.1802903 -136.44911616 295.81740177 -134.5 297.75 C-133.58734375 298.67039062 -133.58734375 298.67039062 -132.65625 299.609375 C-131.10515723 301.21434088 -131.10515723 301.21434088 -129 301 C-128.67 301.99 -128.34 302.98 -128 304 C-127.34 304 -126.68 304 -126 304 C-126 304.66 -126 305.32 -126 306 C-123.8611698 307.52902328 -121.73333315 308.93422732 -119.5 310.3125 C-118.85506592 310.71694336 -118.21013184 311.12138672 -117.5456543 311.53808594 C-116.26694855 312.3393889 -114.98662658 313.13811933 -113.70458984 313.93408203 C-112.35045531 314.7808525 -111.01047918 315.65025654 -109.67578125 316.52734375 C-104.47559823 319.93962318 -98.89981844 322.99844609 -93 325 C-92.01 324.67 -91.02 324.34 -90 324 C-90.46148437 323.61070312 -90.92296875 323.22140625 -91.3984375 322.8203125 C-112.95445781 304.33155199 -129.17670066 280.69843425 -139 254 C-139.27054199 253.26861816 -139.54108398 252.53723633 -139.81982422 251.78369141 C-144.5855075 238.72941114 -147.87564087 225.73116145 -150 212 C-150.17797119 210.99557861 -150.35594238 209.99115723 -150.53930664 208.95629883 C-151.15403417 203.67719992 -151.12304514 198.4700006 -151.09765625 193.16015625 C-151.0962413 192.03806259 -151.09482635 190.91596893 -151.09336853 189.75987244 C-151.087794 186.19405392 -151.07524616 182.62829938 -151.0625 179.0625 C-151.05748171 176.6373707 -151.05291938 174.21224041 -151.04882812 171.78710938 C-151.03783291 165.85805128 -151.0211202 159.92903021 -151 154 C-151.33 154 -151.66 154 -152 154 Z " fill="#1A74BA" transform="translate(181,100)"/>
<path d="M0 0 C3.7364798 1.87784525 6.969086 4.21914192 9.87597656 7.21630859 C9.87597656 7.87630859 9.87597656 8.53630859 9.87597656 9.21630859 C10.53597656 9.21630859 11.19597656 9.21630859 11.87597656 9.21630859 C40.09102404 39.24749706 42.10597223 103.71831563 46.56347656 142.21630859 C46.66629944 143.09051453 46.76912231 143.96472046 46.87506104 144.86541748 C50.168117 173.13940575 51.23158857 201.25267503 51.19165039 229.6887207 C51.1870429 233.22921538 51.1938755 236.76936444 51.2121582 240.30981445 C51.58172271 312.65563765 45.17762319 392.9108032 19.87597656 461.21630859 C19.56273437 462.13927734 19.24949219 463.06224609 18.92675781 464.01318359 C16.32264154 471.26515297 12.42962079 477.63184007 6.12597656 482.21630859 C0.63068651 484.65865973 -4.3474419 484.81597733 -10.12402344 483.21630859 C-10.10082031 483.82216797 -10.07761719 484.42802734 -10.05371094 485.05224609 C-9.92012096 491.25463775 -10.26715823 497.25600054 -12.12402344 503.21630859 C-14.12402344 505.21630859 -14.12402344 505.21630859 -17.62402344 505.65380859 C-26.88997953 505.41794789 -34.53491553 498.98487189 -40.62402344 492.59130859 C-44.12367469 488.2251842 -46.57964035 483.17492729 -49.12402344 478.21630859 C-49.4442749 477.61584717 -49.76452637 477.01538574 -50.09448242 476.39672852 C-52.65412271 471.49049838 -54.49830553 466.58208205 -56.06152344 461.27880859 C-56.44219971 459.98789307 -56.44219971 459.98789307 -56.83056641 458.67089844 C-71.87135405 405.95768202 -73.55335469 348.07852155 -77.36230469 293.71240234 C-77.42557449 292.81146347 -77.4888443 291.9105246 -77.55403137 290.98228455 C-77.75352705 288.06083034 -77.94045677 285.13880827 -78.12402344 282.21630859 C-78.16589405 281.57236523 -78.20776466 280.92842186 -78.25090408 280.26496506 C-78.99832479 268.64309561 -79.3005897 257.06392865 -79.32714844 245.41943359 C-79.32997581 244.55663536 -79.33280319 243.69383713 -79.33571625 242.80489349 C-79.35057319 238.22230241 -79.35988273 233.6397416 -79.36425781 229.05712891 C-79.36860152 225.36561986 -79.38235241 221.67434994 -79.40527344 217.98291016 C-79.79835411 153.30798074 -78.29855445 65.61096645 -39.12402344 11.21630859 C-38.46402344 11.21630859 -37.80402344 11.21630859 -37.12402344 11.21630859 C-37.12402344 10.55630859 -37.12402344 9.89630859 -37.12402344 9.21630859 C-36.46402344 9.21630859 -35.80402344 9.21630859 -35.12402344 9.21630859 C-34.79402344 8.22630859 -34.46402344 7.23630859 -34.12402344 6.21630859 C-25.71447147 -2.47232143 -11.15217985 -4.11476981 0 0 Z M-27.12402344 51.21630859 C-27.12402344 51.87630859 -27.12402344 52.53630859 -27.12402344 53.21630859 C-27.78402344 53.21630859 -28.44402344 53.21630859 -29.12402344 53.21630859 C-34.13765559 58.48128378 -37.11483663 64.97858139 -39.74902344 71.65380859 C-40.14577271 72.6426001 -40.14577271 72.6426001 -40.55053711 73.65136719 C-46.01835578 88.16436285 -49.05055035 103.61382456 -51.74902344 118.84130859 C-51.89776917 119.67004486 -52.04651489 120.49878113 -52.19976807 121.35263062 C-55.20595588 138.24075881 -57.01557505 155.10018012 -58.12402344 172.21630859 C-58.17061096 172.8981723 -58.21719849 173.58003601 -58.26519775 174.28256226 C-59.10262027 186.66187476 -59.28303771 198.99888418 -59.24902344 211.40380859 C-59.24813721 212.33987946 -59.24725098 213.27595032 -59.24633789 214.24038696 C-59.23077453 228.25504638 -58.99363353 242.22490343 -58.12402344 256.21630859 C-57.79402344 256.21630859 -57.46402344 256.21630859 -57.12402344 256.21630859 C-57.00921631 255.11270996 -56.89440918 254.00911133 -56.77612305 252.87207031 C-52.26517157 209.9867944 -45.10307301 168.7921834 -31.49902344 127.77880859 C-31.27508911 127.10328949 -31.05115479 126.42777039 -30.82043457 125.73178101 C-26.24893747 112.0259017 -20.95972517 98.66634732 -14.93652344 85.52880859 C-14.47528076 84.51858643 -14.01403809 83.50836426 -13.53881836 82.4675293 C-9.87336994 74.56295853 -5.82805353 66.91937283 -1.47680664 59.37182617 C-0.81684692 58.21783325 -0.81684692 58.21783325 -0.14355469 57.04052734 C0.24727295 56.37110107 0.63810059 55.7016748 1.04077148 55.01196289 C2.08684547 53.09301457 2.08684547 53.09301457 1.87597656 50.21630859 C1.21597656 50.21630859 0.55597656 50.21630859 -0.12402344 50.21630859 C-0.12402344 49.55630859 -0.12402344 48.89630859 -0.12402344 48.21630859 C-1.11402344 48.21630859 -2.10402344 48.21630859 -3.12402344 48.21630859 C-3.12402344 47.55630859 -3.12402344 46.89630859 -3.12402344 46.21630859 C-12.97114832 43.41149228 -19.10860387 45.00435843 -27.12402344 51.21630859 Z M5.87597656 56.21630859 C5.69550781 57.36873047 5.51503906 58.52115234 5.32910156 59.70849609 C3.63045109 67.3345427 -0.06868064 74.3065771 -3.37402344 81.34130859 C-8.28406865 91.85768906 -12.94089691 102.3869401 -17.12402344 113.21630859 C-17.5495752 114.31072266 -17.97512695 115.40513672 -18.41357422 116.53271484 C-31.72946561 151.0752402 -40.71522217 186.65271812 -45.71728516 223.328125 C-46.1612406 226.48058169 -46.65671967 229.62282812 -47.15527344 232.76708984 C-52.8541457 269.77151211 -51.97449418 309.16096815 -47.12402344 346.21630859 C-46.89924316 347.98820557 -46.89924316 347.98820557 -46.66992188 349.79589844 C-44.64489313 365.45655065 -41.8275009 380.86764546 -38.12402344 396.21630859 C-37.73126221 397.84898682 -37.73126221 397.84898682 -37.33056641 399.51464844 C-31.07623543 427.71802722 -31.07623543 427.71802722 -18.12402344 453.21630859 C-17.35832031 454.33005859 -17.35832031 454.33005859 -16.57714844 455.46630859 C-16.09761719 456.04380859 -15.61808594 456.62130859 -15.12402344 457.21630859 C-14.46402344 457.21630859 -13.80402344 457.21630859 -13.12402344 457.21630859 C-13.12402344 457.87630859 -13.12402344 458.53630859 -13.12402344 459.21630859 C-9.45153725 461.56669975 -6.41245249 461.73387762 -2.12402344 461.21630859 C0.32059235 459.77735532 1.85909581 458.28238155 3.87597656 456.21630859 C3.87597656 455.55630859 3.87597656 454.89630859 3.87597656 454.21630859 C4.53597656 454.21630859 5.19597656 454.21630859 5.87597656 454.21630859 C11.96883472 444.1695744 14.46725908 433.42128796 17.17773438 422.10351562 C17.79813639 419.53817497 18.44960717 416.98426455 19.11816406 414.43115234 C27.30472434 382.59193542 31.43773248 349.85112254 34.87597656 317.21630859 C34.96754028 316.35586945 35.059104 315.4954303 35.15344238 314.60891724 C36.19639671 304.75731608 37.18389471 294.93554128 37.50097656 285.02880859 C37.53819824 283.93769775 37.57541992 282.84658691 37.61376953 281.72241211 C38.11032147 264.96206803 38.0487755 248.18876906 37.89556885 231.42352295 C37.8784296 229.49266145 37.86583702 227.56176068 37.85400391 225.63085938 C37.53309109 191.11913386 32.85884552 156.16441579 26.87597656 122.21630859 C26.66972656 121.01377441 26.46347656 119.81124023 26.25097656 118.57226562 C21.78255222 92.38016722 21.78255222 92.38016722 13.31347656 67.27880859 C13.03262207 66.62178955 12.75176758 65.96477051 12.46240234 65.2878418 C10.77587138 61.57717968 8.94798915 58.89843774 5.87597656 56.21630859 Z " fill="#8AC43E" transform="translate(522.1240234375,0.78369140625)"/>
<path d="M0 0 C4.59623164 1.76866199 8.75744595 3.83033907 11.26171875 8.203125 C11.50535156 8.79609375 11.74898437 9.3890625 12 10 C12.66 10 13.32 10 14 10 C29.62710545 29.3899135 31.64123897 61.08318661 34.5625 84.6875 C34.70996674 85.85309448 34.85743347 87.01868896 35.0093689 88.21960449 C40.63047039 132.66727973 44.1258281 177.20583182 45 222 C45.02336426 223.17304688 45.04672852 224.34609375 45.07080078 225.5546875 C45.76513722 267.09817855 43.45369406 308.7084359 39 350 C38.92007812 350.75140259 38.84015625 351.50280518 38.7578125 352.27697754 C25.17283683 479.82716317 25.17283683 479.82716317 6 499 C1.75134395 502.12038225 -2.56871724 503.71755349 -7.93359375 503.37109375 C-16.62479898 501.8102913 -21.87313885 496.98335044 -27 490 C-27.70419584 488.68610105 -28.38569844 487.3582547 -29 486 C-29.38091797 487.32064453 -29.38091797 487.32064453 -29.76953125 488.66796875 C-30.11371094 489.82941406 -30.45789062 490.99085938 -30.8125 492.1875 C-31.14894531 493.33605469 -31.48539063 494.48460937 -31.83203125 495.66796875 C-32.92644802 498.79016776 -34.07372557 501.31534982 -36 504 C-36.66 504 -37.32 504 -38 504 C-38 504.66 -38 505.32 -38 506 C-39.43583001 506.10836453 -40.8740202 506.18576167 -42.3125 506.25 C-43.11300781 506.29640625 -43.91351562 506.3428125 -44.73828125 506.390625 C-47 506 -47 506 -48.62109375 504.44921875 C-50.40541617 501.2798982 -51.59674448 497.99686796 -52.75 494.5625 C-53.00604004 493.81371582 -53.26208008 493.06493164 -53.52587891 492.29345703 C-54.07466657 490.68414299 -54.62030833 489.07375335 -55.16308594 487.46240234 C-55.97697331 485.06775005 -56.81733699 482.6839917 -57.6640625 480.30078125 C-72.74503189 437.26558472 -80.90125001 391.32620841 -85 346 C-85.10441406 344.87513184 -85.20882813 343.75026367 -85.31640625 342.59130859 C-88.72427375 304.0964255 -88.57032123 264.47792753 -85 226 C-84.92458984 225.18585632 -84.84917969 224.37171265 -84.77148438 223.53289795 C-80.37172567 176.75136355 -72.12644851 130.87224821 -58 86 C-57.7333252 85.15018555 -57.46665039 84.30037109 -57.19189453 83.42480469 C-51.85265317 66.56294551 -45.45915015 50.10359131 -38.4375 33.875 C-37.78551636 32.34734009 -37.78551636 32.34734009 -37.12036133 30.78881836 C-29.4529583 13.34629701 -20.82750994 -2.63772922 0 0 Z M-12.8125 55.5 C-13.60269531 56.1084375 -14.39289063 56.716875 -15.20703125 57.34375 C-15.79871094 57.8903125 -16.39039063 58.436875 -17 59 C-17 59.66 -17 60.32 -17 61 C-17.66 61 -18.32 61 -19 61 C-25.78869013 73.76634206 -30.64909624 87.23957452 -35 101 C-35.25362305 101.79277344 -35.50724609 102.58554688 -35.76855469 103.40234375 C-48.12604765 142.10503905 -48.12604765 142.10503905 -55 182 C-53.68 182 -52.36 182 -51 182 C-51.20318618 184.43823411 -51.40638215 186.87646739 -51.60961914 189.31469727 C-51.78865399 191.46360963 -51.96752393 193.61253573 -52.14624023 195.76147461 C-52.6080251 201.31136243 -53.0721801 206.86102443 -53.54296875 212.41015625 C-53.6301416 213.44269531 -53.71731445 214.47523438 -53.80712891 215.5390625 C-53.97111504 217.48055797 -54.13607056 219.42197195 -54.30224609 221.36328125 C-54.54463597 224.24147043 -54.77290423 227.12056605 -55 230 C-55.08975098 231.04438232 -55.17950195 232.08876465 -55.27197266 233.16479492 C-56.23317149 245.49325236 -56.2425911 257.82771704 -56.25 270.1875 C-56.25100708 271.35651855 -56.25201416 272.52553711 -56.25305176 273.72998047 C-56.2413124 293.97416369 -55.31210679 313.89483403 -53 334 C-52.87141602 335.19641113 -52.74283203 336.39282227 -52.61035156 337.62548828 C-48.97680867 370.79427996 -42.36771065 405.11694025 -30.34765625 436.328125 C-29.20268845 439.44774741 -28.44124599 442.31476697 -27.8125 445.5625 C-25.96555081 453.40199631 -21.98225433 460.07598535 -18 467 C-17.34 467 -16.68 467 -16 467 C-16 467.66 -16 468.32 -16 469 C-15.34 469 -14.68 469 -14 469 C-14 469.66 -14 470.32 -14 471 C-10.28851734 474.11285642 -6.833275 474.58139331 -2.1484375 474.41796875 C1.39855079 473.7279183 2.87953951 471.80649182 5 469 C11.84554153 458.62927584 13.22601559 444.61630686 15.4375 432.5625 C15.74127284 430.92813766 16.0450655 429.293779 16.34887695 427.65942383 C21.11047924 401.88871589 25.05204605 376.04025991 28 350 C28.14179687 348.75347656 28.28359375 347.50695312 28.4296875 346.22265625 C38.06662661 259.58111874 33.80151916 171.77669598 19 86 C18.86930115 85.23453857 18.73860229 84.46907715 18.60394287 83.68041992 C18.22895737 81.50276635 17.84329567 79.3273224 17.453125 77.15234375 C17.12683105 75.32110962 17.12683105 75.32110962 16.79394531 73.45288086 C15.37598009 67.28612744 12.81966554 61.63933109 10 56 C9.34 56 8.68 56 8 56 C8 55.34 8 54.68 8 54 C6.9275 53.34 5.855 52.68 4.75 52 C4.14671875 51.62875 3.5434375 51.2575 2.921875 50.875 C-3.05185518 48.15525293 -8.22313337 51.90765995 -12.8125 55.5 Z " fill="#ED4035" transform="translate(1168,0)"/>
<path d="M0 0 C4.95 0 9.9 0 15 0 C15 12.87 15 25.74 15 39 C15.66 39 16.32 39 17 39 C17.26167969 38.39285156 17.52335937 37.78570313 17.79296875 37.16015625 C20.36373933 32.55939208 25.10731798 30.65953272 29.92578125 28.98046875 C42.85410742 25.5234438 56.53353634 26.63192044 68.30078125 33.3046875 C70.25 34.625 70.25 34.625 73 37 C73 37.66 73 38.32 73 39 C73.59425781 39.21140625 74.18851563 39.4228125 74.80078125 39.640625 C77.81444599 41.5034231 78.65441358 43.58135867 80.1875 46.75 C80.69667969 47.77609375 81.20585938 48.8021875 81.73046875 49.859375 C85.48017994 59.13558361 85.32394071 71.56996558 82 81 C76.49666182 91.74530409 69.4434663 98.10827354 58 102 C53.45444477 102.6750017 49.02577925 102.70211394 44.4375 102.625 C43.28314453 102.64433594 42.12878906 102.66367187 40.93945312 102.68359375 C31.90702271 102.63236045 24.45805904 100.63353092 17.875 94.1875 C16.946875 93.1046875 16.946875 93.1046875 16 92 C15.67 95.3 15.34 98.6 15 102 C10.05 102 5.1 102 0 102 C0 68.34 0 34.68 0 0 Z M23 48 C21.5337314 50.08451836 21.5337314 50.08451836 21 52 C20.34 52 19.68 52 19 52 C15.58997235 59.11657943 14.04445546 64.79536873 16.375 72.5 C19.07041789 79.25263228 23.87008052 83.83196998 30.26953125 87.19140625 C37.54813986 89.34687403 47.90731214 89.30678396 55.0625 86.5625 C60.8686917 83.33181746 65.58858775 78.56539586 68.046875 72.35546875 C69.63615349 65.58165371 69.10247152 59.26329674 66 53 C61.1850401 47.20088346 54.57098962 42.88034763 47 42 C37.94692581 41.44288774 30.5579968 42.86056218 23 48 Z " fill="#fff" transform="translate(1436,599)"/>
<path d="M0 0 C7.15594972 5.70937064 11.49368448 13.37053754 12.81640625 22.44921875 C13.36435146 33.35332834 13.36435146 33.35332834 11.81640625 36.44921875 C-7.98359375 36.44921875 -27.78359375 36.44921875 -48.18359375 36.44921875 C-46.86359375 39.08921875 -45.54359375 41.72921875 -44.18359375 44.44921875 C-44.18359375 45.10921875 -44.18359375 45.76921875 -44.18359375 46.44921875 C-43.28640625 46.88234375 -43.28640625 46.88234375 -42.37109375 47.32421875 C-40.18359375 48.44921875 -40.18359375 48.44921875 -37.18359375 50.44921875 C-25.05920092 54.49068303 -12.99107965 52.63453717 -1.18359375 48.44921875 C-0.19359375 47.45921875 -0.19359375 47.45921875 0.81640625 46.44921875 C2.13640625 46.44921875 3.45640625 46.44921875 4.81640625 46.44921875 C7.53031903 51.22279747 9.38201771 54.79310412 8.81640625 60.44921875 C-0.95527685 66.35294395 -8.937486 68.00889265 -20.22705078 68.00512695 C-22.41619021 68.01166676 -24.6007272 68.06618462 -26.7890625 68.12304688 C-38.42214734 68.26330977 -47.34770369 65.28048838 -56.18359375 57.44921875 C-56.18359375 56.78921875 -56.18359375 56.12921875 -56.18359375 55.44921875 C-56.84359375 55.44921875 -57.50359375 55.44921875 -58.18359375 55.44921875 C-64.98213722 44.89975474 -66.97023968 32.95210364 -64.64453125 20.58203125 C-63.20943531 15.39360745 -61.04777611 10.99240456 -58.18359375 6.44921875 C-57.52359375 6.44921875 -56.86359375 6.44921875 -56.18359375 6.44921875 C-56.18359375 5.78921875 -56.18359375 5.12921875 -56.18359375 4.44921875 C-55.52359375 4.44921875 -54.86359375 4.44921875 -54.18359375 4.44921875 C-54.18359375 3.78921875 -54.18359375 3.12921875 -54.18359375 2.44921875 C-39.54981518 -10.18904456 -15.87447498 -10.67919226 0 0 Z M-44.703125 15.65625 C-46.73219421 17.89438962 -46.73219421 17.89438962 -48.18359375 23.44921875 C-33.33359375 23.44921875 -18.48359375 23.44921875 -3.18359375 23.44921875 C-6.03909046 15.83456086 -7.3710874 12.84705845 -14.41796875 9.3359375 C-25.64030296 5.73781622 -35.91411449 8.47621167 -44.703125 15.65625 Z " fill="#fff" transform="translate(972.18359375,633.55078125)"/>
<path d="M0 0 C5.5164625 5.04419704 8.0955342 10.65715979 8.78149414 18.12556458 C8.86467196 21.33661276 8.85718773 24.53428856 8.8125 27.74609375 C8.80825516 28.9097496 8.80401031 30.07340546 8.79963684 31.27232361 C8.7829491 34.96043808 8.74531444 38.64799036 8.70703125 42.3359375 C8.69197165 44.84829936 8.67828549 47.36066985 8.66601562 49.87304688 C8.63307789 56.00672445 8.5813636 62.13998591 8.51953125 68.2734375 C4.22953125 68.2734375 -0.06046875 68.2734375 -4.48046875 68.2734375 C-5.47046875 63.3234375 -5.47046875 63.3234375 -6.48046875 58.2734375 C-7.47046875 59.2634375 -8.46046875 60.2534375 -9.48046875 61.2734375 C-10.14046875 61.2734375 -10.80046875 61.2734375 -11.48046875 61.2734375 C-11.48046875 61.9334375 -11.48046875 62.5934375 -11.48046875 63.2734375 C-19.44498917 68.31514545 -26.24374556 69.04690833 -35.54296875 68.8984375 C-36.75791016 68.91777344 -37.97285156 68.93710937 -39.22460938 68.95703125 C-48.60771304 68.90617432 -54.3270604 66.80825311 -61.41796875 60.7734375 C-65.3608244 55.99421853 -65.7549302 51.88880091 -65.73046875 45.7734375 C-65.735625 44.484375 -65.74078125 43.1953125 -65.74609375 41.8671875 C-65.49877242 38.5210754 -64.93097565 36.26654697 -63.48046875 33.2734375 C-62.82046875 33.2734375 -62.16046875 33.2734375 -61.48046875 33.2734375 C-61.23296875 32.6753125 -60.98546875 32.0771875 -60.73046875 31.4609375 C-58.79195145 28.06853222 -56.5077296 26.70944341 -52.95068359 25.19970703 C-48.46133703 24.00141093 -44.33075424 24.02436017 -39.70703125 24.078125 C-38.78328705 24.0809549 -37.85954285 24.08378479 -36.9078064 24.08670044 C-33.97355899 24.09784571 -31.03962305 24.12293985 -28.10546875 24.1484375 C-26.10937943 24.15847461 -24.11328529 24.16759918 -22.1171875 24.17578125 C-17.23816226 24.19776653 -12.35936821 24.23225733 -7.48046875 24.2734375 C-8.10991729 22.65753975 -8.74352545 21.04326187 -9.37890625 19.4296875 C-9.73130371 18.53056641 -10.08370117 17.63144531 -10.44677734 16.70507812 C-11.74872137 13.64240393 -12.63785021 12.06877552 -15.48046875 10.2734375 C-25.89266618 6.75080622 -37.37086077 8.39599469 -47.48046875 12.2734375 C-49.96675872 13.79334104 -52.16695126 15.4901011 -54.48046875 17.2734375 C-55.47046875 17.2734375 -56.46046875 17.2734375 -57.48046875 17.2734375 C-58.35238822 15.88862422 -59.20237259 14.48998504 -60.04296875 13.0859375 C-60.51863281 12.30863281 -60.99429687 11.53132812 -61.484375 10.73046875 C-62.70221341 7.72646733 -62.58042583 6.29958671 -61.48046875 3.2734375 C-59.07557389 1.638109 -57.0864251 0.45966136 -54.48046875 -0.7265625 C-53.41054688 -1.22414063 -52.340625 -1.72171875 -51.23828125 -2.234375 C-36.19138786 -8.60543817 -13.75465652 -9.57410737 0 0 Z M-45.35546875 39.7734375 C-46.05671875 40.5984375 -46.75796875 41.4234375 -47.48046875 42.2734375 C-47.81046875 42.6034375 -48.14046875 42.9334375 -48.48046875 43.2734375 C-48.9821629 46.10417186 -48.9821629 46.10417186 -48.48046875 49.2734375 C-45.32976906 53.35081357 -42.50433185 55.23074893 -37.48046875 56.2734375 C-28.70913966 57.27719875 -20.78784966 55.29776877 -13.54296875 50.2109375 C-11.51105065 47.31699354 -10.51810616 44.90438638 -9.3515625 41.58984375 C-8.99892334 40.5954126 -8.64628418 39.60098145 -8.28295898 38.57641602 C-8.01813721 37.81643311 -7.75331543 37.0564502 -7.48046875 36.2734375 C-12.00128841 36.24426513 -16.52208363 36.2265807 -21.04296875 36.2109375 C-22.31978516 36.20255859 -23.59660156 36.19417969 -24.91210938 36.18554688 C-26.15283203 36.18232422 -27.39355469 36.17910156 -28.671875 36.17578125 C-29.80826416 36.17054443 -30.94465332 36.16530762 -32.11547852 36.15991211 C-39.34073042 36.27249765 -39.34073042 36.27249765 -45.35546875 39.7734375 Z " fill="#fff" transform="translate(492.48046875,632.7265625)"/>
<path d="M0 0 C1.75 1.5 1.75 1.5 3 3 C3 3.66 3 4.32 3 5 C3.66 5 4.32 5 5 5 C6.21875 6.5390625 6.21875 6.5390625 7.5 8.625 C7.9228125 9.29789063 8.345625 9.97078125 8.78125 10.6640625 C13.62245616 19.94304098 12 25.18733857 12 37 C-7.8 37.33 -27.6 37.66 -48 38 C-47.01 39.98 -46.02 41.96 -45 44 C-44.67 44.99 -44.34 45.98 -44 47 C-43.34 47 -42.68 47 -42 47 C-42 47.66 -42 48.32 -42 49 C-41.38511719 49.20496094 -40.77023437 49.40992188 -40.13671875 49.62109375 C-35.06835938 51.31054688 -35.06835938 51.31054688 -30 53 C-19.85257512 53.69429749 -10.69692512 52.90025279 -1.5625 48.25 C1 47 1 47 3.01953125 47.1875 C6.22519228 48.50264298 6.85964388 50.90219531 8.25 53.921875 C9.1370676 56.37979147 9.32398711 58.40810312 9 61 C-0.66713874 66.96483029 -9.23745909 68.58181609 -20.58178711 68.61083984 C-22.66828985 68.62487082 -24.74868903 68.69228277 -26.83398438 68.76171875 C-37.77733318 68.93888098 -47.00798697 66.36437173 -55.38671875 58.86328125 C-64.1340223 49.5087896 -65.65445813 39.04994343 -65.37890625 26.7890625 C-64.85577423 17.25268451 -60.73952319 9.61062521 -54 3 C-53.51402344 2.48566406 -53.02804687 1.97132813 -52.52734375 1.44140625 C-38.93756334 -11.38373178 -14.96777999 -8.16123986 0 0 Z M-44.4375 16.5 C-46.68359745 19.19286888 -47.09561844 20.38247378 -48 24 C-33.48 24 -18.96 24 -4 24 C-5.0453484 17.7279096 -5.53621904 16.91941743 -10 13 C-10.66 12.34 -11.32 11.68 -12 11 C-23.34240981 6.31002996 -36.05752314 7.35284216 -44.4375 16.5 Z " fill="#fff" transform="translate(349,633)"/>
<path d="M0 0 C5.28 0 10.56 0 16 0 C16.495 18.315 16.495 18.315 17 37 C18.65 35.35 20.3 33.7 22 32 C30.8883449 26.7625004 40.89417313 26.11739049 50.8125 28.1875 C58.3806794 30.20387277 63.64069193 32.5393964 68.00390625 39.27734375 C72.54268555 47.12676207 72.14152797 55.59885227 72.09765625 64.40234375 C72.0962413 65.48004532 72.09482635 66.55774689 72.09336853 67.66810608 C72.08779611 71.09126629 72.07524868 74.51435975 72.0625 77.9375 C72.05748144 80.26627509 72.05291915 82.59505122 72.04882812 84.92382812 C72.0378357 90.61591092 72.02059011 96.30794416 72 102 C66.72 102 61.44 102 56 102 C55.970271 100.01021118 55.970271 100.01021118 55.93994141 97.98022461 C55.8636344 93.03944528 55.77495597 88.09895083 55.68261719 83.15844727 C55.64443094 81.02373903 55.60956032 78.88896871 55.578125 76.75415039 C55.53224923 73.67832314 55.47429206 70.6029194 55.4140625 67.52734375 C55.40251129 66.57915268 55.39096008 65.63096161 55.37905884 64.65403748 C55.3101173 55.80654755 55.3101173 55.80654755 51.375 48.1875 C50.92125 47.795625 50.4675 47.40375 50 47 C50 46.34 50 45.68 50 45 C41.67328779 42.81446382 33.46676015 41.72601301 25.5625 45.75 C20.96744251 49.78468463 17.40600389 53.86794328 16.78924561 60.14492798 C16.67257507 62.8020319 16.61873563 65.45381638 16.5859375 68.11328125 C16.56657135 69.08283249 16.5472052 70.05238373 16.5272522 71.05131531 C16.46762564 74.13828828 16.4211386 77.22529888 16.375 80.3125 C16.33680466 82.40952118 16.29775202 84.50652694 16.2578125 86.60351562 C16.16193791 91.73555131 16.07784423 96.86766043 16 102 C10.72 102 5.44 102 0 102 C0 68.34 0 34.68 0 0 Z " fill="#fff" transform="translate(1151,599)"/>
<path d="M0 0 C0.99 0.66 1.98 1.32 3 2 C3.4375 4.375 3.4375 4.375 3 7 C1.125 9.3125 1.125 9.3125 -1 11 C-1.66 11 -2.32 11 -3 11 C-3 11.66 -3 12.32 -3 13 C-4.671875 13.67578125 -4.671875 13.67578125 -7 14 C-9.515625 12.85546875 -9.515625 12.85546875 -12.25 11.1875 C-20.9339319 6.23018258 -30.06350721 4.25026774 -39.9375 6.875 C-43.11162969 7.90558242 -43.11162969 7.90558242 -46 10 C-46.72382467 12.05925139 -46.72382467 12.05925139 -47 14 C-40.97002789 15.88044868 -35.09061201 17.19772247 -28.8125 17.9375 C-23.19775638 18.62208452 -17.79924831 19.62689768 -12.3125 21 C-11.64130127 21.1662085 -10.97010254 21.33241699 -10.27856445 21.50366211 C-3.3711867 23.2936811 -0.35329768 25.23482199 4 31 C6.00697782 37.02093347 6.06513962 45.16934728 4.3515625 51.33203125 C1.05890831 57.56556033 -4.86159983 62.06857522 -11.40380859 64.39355469 C-16.57493841 65.60148082 -21.84575407 65.51864412 -27.1340332 65.50097656 C-29.16699598 65.50000975 -31.19610095 65.54159928 -33.22851562 65.5859375 C-44.53698628 65.69116456 -55.38934877 63.40139328 -63.875 55.5 C-64.69742187 54.7678125 -65.51984375 54.035625 -66.3671875 53.28125 C-68 51 -68 51 -67.88671875 48.30078125 C-67 46 -67 46 -64.9375 44.6875 C-64.298125 44.460625 -63.65875 44.23375 -63 44 C-63 43.34 -63 42.68 -63 42 C-62.01 42 -61.02 42 -60 42 C-60 41.34 -60 40.68 -60 40 C-57.83125748 40.50603992 -56.00032373 40.99983813 -54 42 C-54 42.66 -54 43.32 -54 44 C-41.81846801 50.14588605 -29.47198917 53.31406395 -16 49 C-13.80231078 48.15700434 -13.80231078 48.15700434 -12 47 C-11.00922702 44.54713404 -11.00922702 44.54713404 -11 42 C-15.3958181 37.6041819 -21.91550759 37.48929955 -27.80957031 36.65673828 C-52.76478751 33.12478486 -52.76478751 33.12478486 -59.1875 25.8125 C-63.09351621 19.75144037 -62.93443727 12.83506993 -61.57421875 5.796875 C-59.57038656 0.33858363 -55.16505862 -3.37150511 -50.1171875 -5.96875 C-48.0981152 -6.78618818 -46.09941649 -7.41979762 -44 -8 C-43.24976563 -8.2165625 -42.49953125 -8.433125 -41.7265625 -8.65625 C-26.93101036 -12.29528548 -12.36736639 -8.28336667 0 0 Z " fill="#fff" transform="translate(1651,636)"/>
<path d="M0 0 C8.18050719 7.16958273 8.18050719 7.16958273 8.6875 13 C8.605 13.70125 8.5225 14.4025 8.4375 15.125 C3.79546103 17.65809233 -0.21405992 19.59015599 -5.5625 20.125 C-8.5625 16.375 -8.5625 16.375 -8.5625 14.125 C-9.34625 13.83625 -10.13 13.5475 -10.9375 13.25 C-13.5625 12.125 -13.5625 12.125 -15.5625 10.125 C-22.97718044 7.09172164 -33.20005625 6.35824824 -40.6875 9.4375 C-43.13151133 10.87202839 -45.33031075 12.3888528 -47.5625 14.125 C-48.2225 14.125 -48.8825 14.125 -49.5625 14.125 C-49.830625 14.805625 -50.09875 15.48625 -50.375 16.1875 C-51.2383522 18.32316069 -52.1881764 20.42448176 -53.1875 22.5 C-55.30722166 28.08835712 -55.14092759 32.17830272 -53 37.6875 C-49.992688 43.85985015 -45.69458662 47.53393433 -39.3125 50 C-30.87717411 52.41009311 -22.51673368 51.80383308 -14.5625 48.125 C-12.22371124 46.56171635 -12.22371124 46.56171635 -10.5625 45.125 C-9.9025 45.125 -9.2425 45.125 -8.5625 45.125 C-7.9025 43.145 -7.2425 41.165 -6.5625 39.125 C-2.90077525 39.75178171 0.3193995 40.76951846 3.75 42.1875 C4.63300781 42.54972656 5.51601562 42.91195312 6.42578125 43.28515625 C7.08964844 43.56230469 7.75351563 43.83945312 8.4375 44.125 C7.30868329 50.65201937 4.66301098 55.90226714 -0.70654297 59.93896484 C-9.84953582 65.78172455 -18.14352302 67.02264535 -28.875 66.875 C-29.55927063 66.87279449 -30.24354126 66.87058899 -30.94854736 66.86831665 C-41.17817295 66.80156714 -50.57200774 66.16567903 -58.5625 59.125 C-58.8925 58.135 -59.2225 57.145 -59.5625 56.125 C-60.17738281 55.84011719 -60.79226562 55.55523438 -61.42578125 55.26171875 C-65.82063649 52.9236879 -67.58329085 47.50009391 -69.5625 43.125 C-70.4375 39.8125 -70.4375 39.8125 -70.5625 36.125 C-70.59988281 35.04992187 -70.63726562 33.97484375 -70.67578125 32.8671875 C-70.90282455 21.61061987 -69.65557015 11.75300779 -61.73828125 3.140625 C-45.5947274 -11.702564 -17.59299005 -13.47164538 0 0 Z " fill="#fff" transform="translate(94.5625,634.875)"/>
<path d="M0 0 C4.95 0 9.9 0 15 0 C15.01981934 1.29623291 15.03963867 2.59246582 15.06005859 3.92797852 C15.13637835 8.75694546 15.22505469 13.58562143 15.31738281 18.41430664 C15.35556383 20.50051104 15.39043533 22.58677882 15.421875 24.6730957 C15.46776227 27.679429 15.52571733 30.68532999 15.5859375 33.69140625 C15.59748871 34.61772354 15.60903992 35.54404083 15.62094116 36.49842834 C15.7921846 44.08586664 16.46889937 50.30621994 22 56 C27.48857068 59.71554072 35.67115017 58.51090614 42 58 C46.32918943 56.79249233 48.54476797 54.56305014 51.375 51.0625 C54.43051017 45.30403853 54.19980435 39.48772752 54.31640625 33.10546875 C54.33718735 32.15811356 54.35796844 31.21075836 54.37937927 30.23469543 C54.44457778 27.2190349 54.50362132 24.2032899 54.5625 21.1875 C54.60571348 19.13866326 54.64932866 17.08983496 54.69335938 15.04101562 C54.80022866 10.02742953 54.90157931 5.01375877 55 0 C60.28 0 65.56 0 71 0 C71 24.09 71 48.18 71 73 C65.72 73 60.44 73 55 73 C54.505 69.535 54.505 69.535 54 66 C53.43474609 66.49588623 52.86949219 66.99177246 52.28710938 67.50268555 C45.09783037 73.23011575 39.53585707 74.05874972 30.5 73.8125 C28.76169922 73.84053711 28.76169922 73.84053711 26.98828125 73.86914062 C18.94429398 73.78279274 13.29346635 72.10080239 7 67 C0.01331517 59.42608951 -0.28439449 51.5277294 -0.1953125 41.6015625 C-0.1924826 40.41146576 -0.18965271 39.22136902 -0.18673706 37.99520874 C-0.17556817 34.20503563 -0.15046917 30.41510134 -0.125 26.625 C-0.11496597 24.05078467 -0.10584085 21.47656562 -0.09765625 18.90234375 C-0.07563954 12.60147089 -0.04113191 6.3007759 0 0 Z " fill="#fff" transform="translate(1293,628)"/>
<path d="M0 0 C5.94 0 11.88 0 18 0 C22.72391519 9.33535621 27.15919161 18.77093578 31.5 28.2890625 C34.85205166 35.6042169 38.35497939 42.82628923 42 50 C42.34144043 49.26177002 42.68288086 48.52354004 43.03466797 47.76293945 C48.89770485 35.0930837 54.76478856 22.4252328 60.75 9.8125 C61.16749512 8.92925049 61.58499023 8.04600098 62.01513672 7.13598633 C62.39686035 6.33443115 62.77858398 5.53287598 63.171875 4.70703125 C63.5028418 4.0106958 63.83380859 3.31436035 64.17480469 2.59692383 C65 1 65 1 66 0 C68.86267567 -0.07325168 71.700719 -0.09238205 74.5625 -0.0625 C75.36880859 -0.05798828 76.17511719 -0.05347656 77.00585938 -0.04882812 C79.00393756 -0.03700518 81.00197783 -0.01906914 83 0 C82.50223298 5.44739402 81.01444581 9.59958597 78.4375 14.4375 C77.70539009 15.85399147 76.97362889 17.27066321 76.2421875 18.6875 C75.86803711 19.40421875 75.49388672 20.1209375 75.10839844 20.859375 C73.71714091 23.54627941 72.37530368 26.25597568 71.03540039 28.96875 C67.96367067 35.18466681 64.77618983 41.32709028 61.5 47.4375 C57.01373122 55.81199825 52.96465653 64.36849981 49 73 C44.38 73 39.76 73 35 73 C33.39244262 69.98092882 31.78887651 66.95984759 30.1875 63.9375 C29.50977539 62.66616211 29.50977539 62.66616211 28.81835938 61.36914062 C26.32180752 56.649382 24.10018151 51.91162448 22 47 C20.50922684 44.05592822 18.940166 41.15504984 17.375 38.25 C13.33563225 30.67983144 9.55546345 23.02036725 5.95654297 15.23144531 C4.50444512 12.10228625 3.08566326 9.13622175 1.24609375 6.2109375 C0 4 0 4 0 0 Z " fill="#fff" transform="translate(766,628)"/>
<path d="M0 0 C0 8.25 0 16.5 0 25 C6.6 25 13.2 25 20 25 C20 29.62 20 34.24 20 39 C13.4 39 6.8 39 0 39 C0.09687571 44.78449938 0.19956817 50.56827198 0.31738281 56.35229492 C0.35568847 58.32032931 0.39053855 60.2884341 0.421875 62.2565918 C0.46749111 65.08407772 0.52549098 67.91107834 0.5859375 70.73828125 C0.59748871 71.61962234 0.60903992 72.50096344 0.62094116 73.40901184 C0.64081085 74.22963608 0.66068054 75.05026031 0.68115234 75.89575195 C0.69447601 76.61745071 0.70779968 77.33914948 0.7215271 78.0827179 C0.90726155 80.32601629 0.90726155 80.32601629 3 83 C6.61867559 84.2062252 9.92506251 84.10816918 13.6875 84.0625 C14.38939453 84.05798828 15.09128906 84.05347656 15.81445312 84.04882812 C17.54300538 84.03706927 19.27151365 84.01913454 21 84 C21 88.62 21 93.24 21 98 C16.83174954 98.16263405 12.669899 98.28124424 8.5 98.375 C7.32695313 98.42527344 6.15390625 98.47554687 4.9453125 98.52734375 C-1.68055359 98.63901565 -6.15013414 98.23343413 -11.43164062 94.08056641 C-16.24910826 87.68977264 -16.41899061 81.05024342 -16.29296875 73.375 C-16.28872391 72.38749756 -16.28447906 71.39999512 -16.28010559 70.38256836 C-16.26342646 67.25475823 -16.22579435 64.1276126 -16.1875 61 C-16.17243925 58.86849894 -16.15875329 56.7369877 -16.14648438 54.60546875 C-16.11355821 49.4033931 -16.06185078 44.20180889 -16 39 C-20.62 39 -25.24 39 -30 39 C-30 34.38 -30 29.76 -30 25 C-25.38 25 -20.76 25 -16 25 C-16 18.73 -16 12.46 -16 6 C-5.5 0 -5.5 0 0 0 Z " fill="#fff" transform="translate(596,603)"/>
<path d="M0 0 C-0.29122249 4.75663393 -1.03407791 8.89737782 -3.9609375 12.765625 C-7.5164478 14.91800288 -11.26572784 13.99062012 -15.25927734 13.50634766 C-20.96039372 12.83932963 -24.85557924 13.65952029 -30 16 C-30.99 16.33 -31.98 16.66 -33 17 C-33 17.66 -33 18.32 -33 19 C-33.66 19 -34.32 19 -35 19 C-36.71049049 23.21920988 -38.11352795 26.80303616 -38.20532227 31.37963867 C-38.22526749 32.26032516 -38.24521271 33.14101166 -38.26576233 34.04838562 C-38.29083107 35.46882927 -38.29083107 35.46882927 -38.31640625 36.91796875 C-38.33718735 37.89034988 -38.35796844 38.86273102 -38.37937927 39.86457825 C-38.44478748 42.97214665 -38.50371929 46.07979985 -38.5625 49.1875 C-38.60569351 51.29362858 -38.64930807 53.39974856 -38.69335938 55.50585938 C-38.80045999 60.67048591 -38.90175219 65.83519778 -39 71 C-44.28 71 -49.56 71 -55 71 C-55 46.91 -55 22.82 -55 -2 C-49.72 -2 -44.44 -2 -39 -2 C-39 0.64 -39 3.28 -39 6 C-38.34 6 -37.68 6 -37 6 C-36.67 5.01 -36.34 4.02 -36 3 C-24.67860355 -4.43725264 -12.26241059 -6.2674543 0 0 Z " fill="#fff" transform="translate(226,630)"/>
<path d="M0 0 C4.95 0 9.9 0 15 0 C15 24.09 15 48.18 15 73 C10.05 73 5.1 73 0 73 C0 48.91 0 24.82 0 0 Z " fill="#fff" transform="translate(686,628)"/>
<path d="M0 0 C6.27 0 12.54 0 19 0 C19 6.6 19 13.2 19 20 C15.885625 20.020625 12.77125 20.04125 9.5625 20.0625 C8.08825562 20.07615601 8.08825562 20.07615601 6.58422852 20.09008789 C5.81522217 20.09258545 5.04621582 20.09508301 4.25390625 20.09765625 C3.46314697 20.10289307 2.6723877 20.10812988 1.85766602 20.11352539 C0 20 0 20 -1 19 C-1.10007008 16.17743509 -1.13875598 13.3847681 -1.125 10.5625 C-1.12886719 9.77294922 -1.13273438 8.98339844 -1.13671875 8.16992188 C-1.12663067 2.25326133 -1.12663067 2.25326133 0 0 Z " fill="#fff" transform="translate(684,599)"/>
</svg>
